# This file uses centimeters as units for non-parametric coordinates.

mtllib grass.mtl
g Grass_A:default1
v -0.624008 0.006573 0.216975
v -0.376857 0.006573 -0.091845
v -0.046434 0.006573 -0.300179
v -0.387888 0.117915 -0.104217
v -0.441439 0.264352 -0.164279
v -0.036623 0.117915 -0.320340
v -0.113109 0.335924 -0.396877
v -0.703699 0.255658 0.162147
v -0.646357 0.117915 0.223299
v -0.658592 0.346949 -0.058181
v -0.492080 0.331501 -0.221077
v -0.352530 0.365623 -0.330036
v -0.315696 0.006573 0.579321
v -0.297523 0.006573 0.224715
v -0.165987 0.006573 -0.100330
v -0.312047 0.119386 0.221484
v -0.382558 0.267759 0.205796
v -0.169408 0.119386 -0.120164
v -0.265269 0.340276 -0.135832
v -0.402510 0.258950 0.581152
v -0.328666 0.119386 0.595647
v -0.485161 0.351447 0.396959
v -0.449237 0.335795 0.190961
v -0.404681 0.370368 0.038401
v 0.627208 0.006573 -0.015183
v 0.407700 0.006573 0.282519
v 0.106665 0.006573 0.489409
v 0.418465 0.124091 0.293671
v 0.470724 0.278652 0.347810
v 0.098244 0.124091 0.508610
v 0.172544 0.354193 0.577296
v 0.703699 0.269475 0.033099
v 0.647857 0.124091 -0.021919
v 0.669704 0.365830 0.240639
v 0.520145 0.349525 0.399008
v 0.393783 0.385540 0.505981
v 0.519620 0.006573 -0.230509
v 0.204889 0.006573 -0.371218
v -0.043352 0.006573 -0.604220
v 0.196874 0.116108 -0.359199
v 0.157962 0.260169 -0.300848
v -0.062512 0.116108 -0.608071
v -0.110288 0.330579 -0.526758
v 0.490859 0.251616 -0.151257
v 0.529859 0.116108 -0.213045
v 0.295110 0.341425 -0.140956
v 0.121164 0.326228 -0.245667
v -0.001368 0.359797 -0.339469
v 0.244255 0.006573 -0.018891
v 0.172419 0.348498 -0.178333
v 0.275056 0.172124 -0.050728
v 0.228860 0.290862 -0.121136
v -0.148750 0.006573 -0.018891
v 0.056729 0.348498 -0.178333
v -0.149835 0.117911 -0.033000
v -0.043938 0.296850 -0.126172
v 0.226886 0.006573 -0.419933
v 0.374885 0.334199 -0.305978
v 0.213922 0.165201 -0.374430
v 0.292908 0.278973 -0.331402
v 0.597000 0.006573 -0.617980
v 0.483837 0.334199 -0.364277
v 0.605132 0.113255 -0.605239
v 0.552355 0.284711 -0.464129
v -0.517562 0.006573 -0.562922
v -0.480897 0.311734 -0.411215
v -0.549835 0.154324 -0.540087
v -0.520950 0.260295 -0.470704
v -0.172874 0.006573 -0.498000
v -0.379429 0.311734 -0.392103
v -0.174253 0.105940 -0.485446
v -0.282522 0.265639 -0.421222
v 0.075022 0.006573 0.375455
v -0.062117 0.255144 0.333226
v 0.072121 0.126924 0.339223
v 0.003712 0.213244 0.329488
v -0.138102 0.006573 0.617465
v -0.124855 0.255144 0.404468
v -0.147378 0.087513 0.610481
v -0.147326 0.217597 0.494744
v 0.179779 0.006573 0.352743
v 0.426159 0.006573 0.016176
v 0.127485 0.374045 0.167588
v 0.422175 0.125494 -0.003894
v 0.341750 0.306463 -0.035413
v 0.127875 0.291806 0.263258
v 0.169089 0.119386 0.344424
v 0.118027 0.006573 -0.034974
v -0.225477 0.006573 0.201639
v 0.106405 0.499548 0.157072
v -0.228327 0.166109 0.221901
v -0.162774 0.408884 0.278155
v 0.137555 0.389222 0.066614
v 0.125380 0.157915 -0.023598
vt 0.000000 0.166667
vt 0.500000 0.166667
vt 0.021989 0.364367
vt 0.500000 0.375049
vt 0.966584 0.468908
vt 0.991394 0.165500
vt 0.249363 0.519640
vt 0.504032 0.492085
vt 0.500000 0.023438
vt 0.019536 0.023438
vt 0.697477 0.541209
vt 0.974427 0.023438
vt 0.000000 0.166667
vt 0.500000 0.166667
vt 0.021989 0.364367
vt 0.500000 0.375049
vt 0.991394 0.165500
vt 0.966584 0.468908
vt 0.249363 0.519640
vt 0.504032 0.492085
vt 0.019536 0.023438
vt 0.500000 0.023438
vt 0.697477 0.541209
vt 0.974427 0.023438
vt 0.500000 0.375049
vt 0.021989 0.364367
vt 0.500000 0.166667
vt 0.000000 0.166667
vt 0.966584 0.468908
vt 0.991394 0.165500
vt 0.249363 0.519640
vt 0.504032 0.492085
vt 0.500000 0.023438
vt 0.019536 0.023438
vt 0.697477 0.541209
vt 0.974427 0.023438
vt 0.500000 0.375049
vt 0.021989 0.364367
vt 0.500000 0.166667
vt 0.000000 0.166667
vt 0.991394 0.165500
vt 0.966584 0.468908
vt 0.504032 0.492085
vt 0.249363 0.519640
vt 0.019536 0.023438
vt 0.500000 0.023438
vt 0.697477 0.541209
vt 0.974427 0.023438
vt 1.011321 0.735353
vt 0.627438 0.911564
vt 0.500000 0.666667
vt 0.955728 0.902147
vt 0.748582 1.000000
vt 0.887807 1.000000
vt 0.501305 0.531250
vt 0.974255 0.531250
vt 0.955728 0.902147
vt 0.500000 0.666667
vt 1.011321 0.735353
vt 0.627438 0.911564
vt 0.748582 1.000000
vt 0.887807 1.000000
vt 0.974255 0.531250
vt 0.501305 0.531250
vt 0.955728 0.902147
vt 0.627438 0.911564
vt 1.011321 0.735353
vt 0.500000 0.666667
vt 0.748582 1.000000
vt 0.887807 1.000000
vt 0.974255 0.531250
vt 0.501305 0.531250
vt 0.500000 0.666667
vt 1.011321 0.735353
vt 0.627438 0.911564
vt 0.955728 0.902147
vt 0.748582 1.000000
vt 0.887807 1.000000
vt 0.501305 0.531250
vt 0.974255 0.531250
vt 0.058153 0.875756
vt 0.011792 0.659572
vt 0.496890 0.666727
vt 0.472018 0.892416
vt 0.145004 0.987951
vt 0.011343 0.531250
vt 0.481295 0.531253
vt 0.011792 0.659572
vt 0.472018 0.892416
vt 0.058153 0.875756
vt 0.496890 0.666727
vt 0.145004 0.987951
vt 0.011343 0.531250
vt 0.481295 0.531253
vn 0.000048 1.000000 0.000038
vn 0.000040 1.000000 0.000045
vn 0.000040 1.000000 0.000033
vn 0.000040 1.000000 0.000033
vn 0.000040 1.000000 0.000045
vn 0.000031 1.000000 0.000035
vn 0.000040 1.000000 0.000045
vn 0.000028 1.000000 0.000043
vn 0.000031 1.000000 0.000035
vn 0.000028 1.000000 0.000043
vn 0.000040 1.000000 0.000045
vn 0.000032 1.000000 0.000051
vn 0.000030 1.000000 0.000026
vn 0.000031 1.000000 0.000035
vn 0.000026 1.000000 0.000029
vn 0.000040 1.000000 0.000033
vn 0.000031 1.000000 0.000035
vn 0.000030 1.000000 0.000026
vn 0.000044 1.000000 0.000049
vn 0.000048 1.000000 0.000038
vn 0.000051 1.000000 0.000041
vn 0.000048 1.000000 0.000038
vn 0.000044 1.000000 0.000049
vn 0.000040 1.000000 0.000045
vn 0.000031 1.000000 0.000035
vn 0.000028 1.000000 0.000043
vn 0.000021 1.000000 0.000032
vn 0.000021 1.000000 0.000032
vn 0.000026 1.000000 0.000029
vn 0.000031 1.000000 0.000035
vn 0.000044 1.000000 0.000049
vn 0.000032 1.000000 0.000051
vn 0.000040 1.000000 0.000045
vn 0.000032 1.000000 0.000051
vn 0.000044 1.000000 0.000049
vn 0.000035 1.000000 0.000056
vn 0.000069 1.000000 0.000003
vn 0.000067 1.000000 0.000015
vn 0.000059 1.000000 0.000003
vn 0.000059 1.000000 0.000003
vn 0.000067 1.000000 0.000015
vn 0.000051 1.000000 0.000012
vn 0.000067 1.000000 0.000015
vn 0.000063 1.000000 0.000026
vn 0.000051 1.000000 0.000012
vn 0.000063 1.000000 0.000026
vn 0.000054 1.000000 0.000021
vn 0.000051 1.000000 0.000012
vn 0.000059 1.000000 0.000003
vn 0.000051 1.000000 0.000012
vn 0.000044 1.000000 0.000004
vn 0.000044 1.000000 0.000004
vn 0.000051 1.000000 0.000012
vn 0.000043 1.000000 0.000010
vn 0.000074 1.000000 0.000004
vn 0.000067 1.000000 0.000015
vn 0.000069 1.000000 0.000003
vn 0.000067 1.000000 0.000015
vn 0.000074 1.000000 0.000004
vn 0.000072 1.000000 0.000016
vn 0.000051 1.000000 0.000012
vn 0.000041 1.000000 0.000015
vn 0.000043 1.000000 0.000010
vn 0.000041 1.000000 0.000015
vn 0.000051 1.000000 0.000012
vn 0.000054 1.000000 0.000021
vn 0.000072 1.000000 0.000016
vn 0.000069 1.000000 0.000028
vn 0.000067 1.000000 0.000015
vn 0.000067 1.000000 0.000015
vn 0.000069 1.000000 0.000028
vn 0.000063 1.000000 0.000026
vn -0.000036 1.000000 -0.000038
vn -0.000047 1.000000 -0.000035
vn -0.000047 1.000000 -0.000049
vn -0.000055 1.000000 -0.000041
vn -0.000047 1.000000 -0.000049
vn -0.000047 1.000000 -0.000035
vn -0.000033 1.000000 -0.000047
vn -0.000047 1.000000 -0.000049
vn -0.000038 1.000000 -0.000056
vn -0.000047 1.000000 -0.000049
vn -0.000033 1.000000 -0.000047
vn -0.000036 1.000000 -0.000038
vn -0.000047 1.000000 -0.000035
vn -0.000036 1.000000 -0.000038
vn -0.000034 1.000000 -0.000028
vn -0.000036 1.000000 -0.000038
vn -0.000030 1.000000 -0.000032
vn -0.000034 1.000000 -0.000028
vn -0.000047 1.000000 -0.000049
vn -0.000055 1.000000 -0.000041
vn -0.000051 1.000000 -0.000053
vn -0.000051 1.000000 -0.000053
vn -0.000055 1.000000 -0.000041
vn -0.000059 1.000000 -0.000044
vn -0.000036 1.000000 -0.000038
vn -0.000033 1.000000 -0.000047
vn -0.000025 1.000000 -0.000035
vn -0.000036 1.000000 -0.000038
vn -0.000025 1.000000 -0.000035
vn -0.000030 1.000000 -0.000032
vn -0.000051 1.000000 -0.000053
vn -0.000038 1.000000 -0.000056
vn -0.000047 1.000000 -0.000049
vn -0.000038 1.000000 -0.000056
vn -0.000051 1.000000 -0.000053
vn -0.000041 1.000000 -0.000061
vn 0.000029 1.000000 -0.000044
vn 0.000024 1.000000 -0.000053
vn 0.000038 1.000000 -0.000057
vn 0.000028 1.000000 -0.000063
vn 0.000038 1.000000 -0.000057
vn 0.000024 1.000000 -0.000053
vn 0.000038 1.000000 -0.000057
vn 0.000047 1.000000 -0.000050
vn 0.000029 1.000000 -0.000044
vn 0.000047 1.000000 -0.000050
vn 0.000039 1.000000 -0.000042
vn 0.000029 1.000000 -0.000044
vn 0.000025 1.000000 -0.000036
vn 0.000020 1.000000 -0.000040
vn 0.000029 1.000000 -0.000044
vn 0.000024 1.000000 -0.000053
vn 0.000029 1.000000 -0.000044
vn 0.000020 1.000000 -0.000040
vn 0.000030 1.000000 -0.000068
vn 0.000038 1.000000 -0.000057
vn 0.000028 1.000000 -0.000063
vn 0.000038 1.000000 -0.000057
vn 0.000030 1.000000 -0.000068
vn 0.000041 1.000000 -0.000062
vn 0.000029 1.000000 -0.000044
vn 0.000039 1.000000 -0.000042
vn 0.000029 1.000000 -0.000032
vn 0.000029 1.000000 -0.000032
vn 0.000025 1.000000 -0.000036
vn 0.000029 1.000000 -0.000044
vn 0.000051 1.000000 -0.000054
vn 0.000038 1.000000 -0.000057
vn 0.000041 1.000000 -0.000062
vn 0.000038 1.000000 -0.000057
vn 0.000051 1.000000 -0.000054
vn 0.000047 1.000000 -0.000050
vn 0.000000 1.000000 0.000006
vn 0.000000 1.000000 0.000005
vn 0.000000 1.000000 0.000006
vn 0.000000 1.000000 0.000005
vn 0.000000 1.000000 0.000006
vn 0.000000 1.000000 0.000005
vn 0.000000 1.000000 0.000004
vn 0.000000 1.000000 0.000005
vn 0.000000 1.000000 0.000004
vn 0.000000 1.000000 0.000005
vn 0.000000 1.000000 0.000005
vn 0.000000 1.000000 0.000004
vn 0.000000 1.000000 0.000006
vn 0.000000 1.000000 0.000006
vn 0.000000 1.000000 0.000006
vn 0.000000 1.000000 0.000006
vn 0.000000 1.000000 0.000006
vn 0.000000 1.000000 0.000006
vn -0.000002 1.000000 -0.000004
vn -0.000002 1.000000 -0.000005
vn -0.000002 1.000000 -0.000005
vn -0.000002 1.000000 -0.000005
vn -0.000002 1.000000 -0.000004
vn -0.000002 1.000000 -0.000004
vn -0.000002 1.000000 -0.000004
vn -0.000002 1.000000 -0.000004
vn -0.000002 1.000000 -0.000003
vn -0.000002 1.000000 -0.000003
vn -0.000002 1.000000 -0.000004
vn -0.000002 1.000000 -0.000003
vn -0.000003 1.000000 -0.000005
vn -0.000002 1.000000 -0.000005
vn -0.000003 1.000000 -0.000005
vn -0.000002 1.000000 -0.000005
vn -0.000003 1.000000 -0.000005
vn -0.000002 1.000000 -0.000005
vn 0.000001 1.000000 -0.000005
vn 0.000001 1.000000 -0.000005
vn 0.000001 1.000000 -0.000006
vn 0.000001 1.000000 -0.000006
vn 0.000001 1.000000 -0.000006
vn 0.000001 1.000000 -0.000005
vn 0.000001 1.000000 -0.000004
vn 0.000001 1.000000 -0.000005
vn 0.000001 1.000000 -0.000004
vn 0.000001 1.000000 -0.000005
vn 0.000001 1.000000 -0.000005
vn 0.000001 1.000000 -0.000004
vn 0.000001 1.000000 -0.000006
vn 0.000001 1.000000 -0.000006
vn 0.000001 1.000000 -0.000006
vn 0.000001 1.000000 -0.000006
vn 0.000001 1.000000 -0.000006
vn 0.000001 1.000000 -0.000006
vn 0.000004 1.000000 0.000004
vn 0.000004 1.000000 0.000004
vn 0.000004 1.000000 0.000003
vn 0.000004 1.000000 0.000003
vn 0.000004 1.000000 0.000004
vn 0.000004 1.000000 0.000003
vn 0.000003 1.000000 0.000003
vn 0.000004 1.000000 0.000003
vn 0.000003 1.000000 0.000003
vn 0.000004 1.000000 0.000003
vn 0.000004 1.000000 0.000003
vn 0.000003 1.000000 0.000003
vn 0.000004 1.000000 0.000004
vn 0.000004 1.000000 0.000004
vn 0.000004 1.000000 0.000004
vn 0.000004 1.000000 0.000004
vn 0.000004 1.000000 0.000004
vn 0.000004 1.000000 0.000004
vn 0.000000 1.000000 0.000000
vn 0.000000 1.000000 0.000000
vn 0.000000 1.000000 0.000000
vn 0.000000 1.000000 0.000000
vn 0.000000 1.000000 0.000000
vn 0.000000 1.000000 0.000000
vn 0.000000 1.000000 0.000000
vn 0.000000 1.000000 0.000000
vn 0.000000 1.000000 0.000000
vn 0.000000 1.000000 0.000000
vn 0.000000 1.000000 0.000000
vn 0.000000 1.000000 0.000000
vn 0.000000 1.000000 0.000000
vn 0.000000 1.000000 0.000000
vn 0.000000 1.000000 0.000000
vn 0.000000 1.000000 0.000000
vn 0.000000 1.000000 0.000000
vn 0.000000 1.000000 0.000000
vn 0.000000 1.000000 0.000000
vn 0.000000 1.000000 0.000000
vn 0.000000 1.000000 0.000000
vn 0.000000 1.000000 0.000000
vn 0.000000 1.000000 0.000000
vn 0.000000 1.000000 0.000000
vn 0.000000 1.000000 0.000000
vn 0.000000 1.000000 0.000000
vn 0.000000 1.000000 0.000000
vn 0.000000 1.000000 0.000000
vn 0.000000 1.000000 0.000000
vn 0.000000 1.000000 0.000000
s off
g Grass_A:polySurface41 Grass_A:polySurface42 Grass_A:polySurface1
usemtl Grass_A:Grass_1SG
f 9/1/1 4/2/2 8/3/3
f 8/3/4 4/2/5 5/4/6
f 4/2/7 7/5/8 5/4/9
f 7/5/10 4/2/11 6/6/12
f 10/7/13 5/4/14 11/8/15
f 8/3/16 5/4/17 10/7/18
f 2/9/19 9/1/20 1/10/21
f 9/1/22 2/9/23 4/2/24
f 5/4/25 7/5/26 12/11/27
f 12/11/28 11/8/29 5/4/30
f 2/9/31 6/6/32 4/2/33
f 6/6/34 2/9/35 3/12/36
g Grass_A:polySurface42 Grass_A:polySurface43 Grass_A:polySurface1
f 21/13/37 16/14/38 20/15/39
f 20/15/40 16/14/41 17/16/42
f 16/14/43 18/17/44 17/16/45
f 18/17/46 19/18/47 17/16/48
f 20/15/49 17/16/50 22/19/51
f 22/19/52 17/16/53 23/20/54
f 13/21/55 16/14/56 21/13/57
f 16/14/58 13/21/59 14/22/60
f 17/16/61 24/23/62 23/20/63
f 24/23/64 17/16/65 19/18/66
f 14/22/67 15/24/68 16/14/69
f 16/14/70 15/24/71 18/17/72
g Grass_A:polySurface42 Grass_A:polySurface44 Grass_A:polySurface1
f 29/25/73 32/26/74 28/27/75
f 33/28/76 28/27/77 32/26/78
f 31/29/79 28/27/80 30/30/81
f 28/27/82 31/29/83 29/25/84
f 32/26/85 29/25/86 34/31/87
f 29/25/88 35/32/89 34/31/90
f 28/27/91 33/28/92 26/33/93
f 26/33/94 33/28/95 25/34/96
f 29/25/97 31/29/98 36/35/99
f 29/25/100 36/35/101 35/32/102
f 26/33/103 30/30/104 28/27/105
f 30/30/106 26/33/107 27/36/108
g Grass_A:polySurface42 Grass_A:polySurface45 Grass_A:polySurface1
f 41/37/109 44/38/110 40/39/111
f 45/40/112 40/39/113 44/38/114
f 40/39/115 42/41/116 41/37/117
f 42/41/118 43/42/119 41/37/120
f 47/43/121 46/44/122 41/37/123
f 44/38/124 41/37/125 46/44/126
f 37/45/127 40/39/128 45/40/129
f 40/39/130 37/45/131 38/46/132
f 41/37/133 43/42/134 48/47/135
f 48/47/136 47/43/137 41/37/138
f 39/48/139 40/39/140 38/46/141
f 40/39/142 39/48/143 42/41/144
g Grass_A:polySurface42 Grass_A:polySurface46 Grass_A:polySurface1
f 51/49/145 56/50/146 55/51/147
f 56/50/148 51/49/149 52/52/150
f 54/53/151 52/52/152 50/54/153
f 56/50/154 52/52/155 54/53/156
f 53/55/157 49/56/158 55/51/159
f 51/49/160 55/51/161 49/56/162
g Grass_A:polySurface42 Grass_A:polySurface47 Grass_A:polySurface1
f 60/57/163 63/58/164 59/59/165
f 63/58/166 60/57/167 64/60/168
f 64/60/169 60/57/170 62/61/171
f 62/61/172 60/57/173 58/62/174
f 57/63/175 63/58/176 61/64/177
f 63/58/178 57/63/179 59/59/180
g Grass_A:polySurface42 Grass_A:polySurface48 Grass_A:polySurface1
f 68/65/181 72/66/182 67/67/183
f 71/68/184 67/67/185 72/66/186
f 70/69/187 68/65/188 66/70/189
f 72/66/190 68/65/191 70/69/192
f 65/71/193 71/68/194 69/72/195
f 71/68/196 65/71/197 67/67/198
g Grass_A:polySurface42 Grass_A:polySurface49 Grass_A:polySurface1
f 79/73/199 75/74/200 80/75/201
f 80/75/202 75/74/203 76/76/204
f 78/77/205 76/76/206 74/78/207
f 80/75/208 76/76/209 78/77/210
f 77/79/211 73/80/212 79/73/213
f 79/73/214 73/80/215 75/74/216
g Grass_A:polySurface42 Grass_A:polySurface50 Grass_A:polySurface1
f 86/81/217 87/82/218 84/83/219
f 86/81/220 84/83/221 85/84/222
f 85/84/223 83/85/224 86/81/225
f 81/86/226 82/87/227 87/82/228
f 87/82/229 82/87/230 84/83/231
g Grass_A:polySurface42 Grass_A:polySurface51 Grass_A:polySurface1
f 94/88/232 92/89/233 93/90/234
f 92/89/235 94/88/236 91/91/237
f 92/89/238 90/92/239 93/90/240
f 88/93/241 91/91/242 94/88/243
f 91/91/244 88/93/245 89/94/246
